<?xml version="1.0" encoding="UTF-8"?>
<svg width="128" height="128" viewBox="0 0 128 128" fill="none" xmlns="http://www.w3.org/2000/svg">
  <rect width="128" height="128" rx="20" fill="#F7F1E7"/>
  <rect x="20" y="20" width="88" height="88" rx="14" fill="#1F1B16"/>
  <path d="M56 40C56 37.7909 57.7909 36 60 36H84C86.2091 36 88 37.7909 88 40V78C88 89.0457 79.0457 98 68 98C58.6112 98 51 90.3888 51 81C51 71.6112 58.6112 64 68 64C72.7657 64 77.0794 65.9555 80 69.112V46H60C57.7909 46 56 44.2091 56 42V40Z" fill="#F6C453"/>
  <circle cx="68" cy="81" r="8" fill="#F6C453"/>
</svg>
